PathFileType	4	(X/Y/Z)	RBDS09\RBDS09runT45.trc
DataRate	CameraRate	NumFrames	NumMarkers	Units	OrigDataRate	OrigDataStartFrame	OrigNumFrames
150.000000	150.000000	4	33	mm	150.000000	3937	4500
Frame#	Time	L.ASIS			L.Heel.Bottom			L.Heel.Lateral			L.Heel.Top			L.Iliac.Crest			L.MT1			L.MT5			L.PSIS			L.Shank.Bottom.Lateral			L.Shank.Bottom.Medial			L.Shank.Top.Lateral			L.Shank.Top.Medial			L.Thigh.Bottom.Lateral			L.Thigh.Bottom.Medial			L.Thigh.Top.Lateral			L.Thigh.Top.Medial			R.ASIS			R.ASY			R.Heel.Bottom			R.Heel.Lateral			R.Heel.Top			R.Iliac.Crest			R.MT1			R.MT5			R.PSIS			R.Shank.Bottom.Lateral			R.Shank.Bottom.Medial			R.Shank.Top.Lateral			R.Shank.Top.Medial			R.Thigh.Bottom.Lateral			R.Thigh.Bottom.Medial			R.Thigh.Top.Lateral			R.Thigh.Top.Medial			
		X1	Y1	Z1	X2	Y2	Z2	X3	Y3	Z3	X4	Y4	Z4	X5	Y5	Z5	X6	Y6	Z6	X7	Y7	Z7	X8	Y8	Z8	X9	Y9	Z9	X10	Y10	Z10	X11	Y11	Z11	X12	Y12	Z12	X13	Y13	Z13	X14	Y14	Z14	X15	Y15	Z15	X16	Y16	Z16	X17	Y17	Z17	X18	Y18	Z18	X19	Y19	Z19	X20	Y20	Z20	X21	Y21	Z21	X22	Y22	Z22	X23	Y23	Z23	X24	Y24	Z24	X25	Y25	Z25	X26	Y26	Z26	X27	Y27	Z27	X28	Y28	Z28	X29	Y29	Z29	X30	Y30	Z30	X31	Y31	Z31	X32	Y32	Z32	X33	Y33	Z33	

3938	26.24666666666667	2334.905744170695	970.4747719890408	942.5397216927427	2196.474930958778	167.1765193536395	1035.04374800563	2227.682906340136	170.7807788651397	987.6119327419041	2224.497830223956	208.0322810385455	1030.469852740375	2261.539656316542	1034.848460096892	902.3763122076347	2397.767187367962	85.32208216758193	1036.571534412423	2346.322564739747	98.69906837356177	939.3500047796778	2181.789520477425	1002.592210378818	1019.948021990778	2307.221673685789	274.076629347143	953.0721804443061	2277.244480873948	289.7278384454197	995.0118376147601	2329.56992342903	350.2907648428742	938.2361879335587	2300.966635661562	366.5035736516649	980.8752742212625	2394.331305451133	641.4449946486768	907.8299943950205	2349.854021352819	607.2041391132929	955.1105000603368	2320.022425080758	722.6595386830174	898.4481433669874	2277.890274127963	690.7999935972379	943.5217004546105	2342.367903977615	943.8908534141175	1174.667644411031	1841.109062935078	135.6142688468136	1168.783468119506	1702.028552673238	247.4907148721094	1133.602001663149	1728.726974593934	226.0999666668807	1182.667154896377	1746.129638890951	265.0454073161738	1143.195969756261	2319.646062598643	1008.206103336343	1206.29611048286	1833.350307943861	84.16590670780886	1111.871008055923	1783.392301875832	94.35562022751773	1212.030006864458	2188.216291435536	1000.193653891504	1095.94253082616	1816.654547309705	309.3257484036608	1193.123441956844	1804.461546063803	322.6414421730348	1144.759745725473	1857.756592807253	383.87294643175	1200.644227799039	1841.821018657485	393.6733877672656	1150.770185458428	2095.176449443024	618.4546534773369	1211.83202332472	2041.377628001947	645.5710967211288	1170.664338883285	2137.022311166168	720.269787781922	1220.689533978499	2088.471791406867	744.5514750489574	1178.168267610956	
3939	26.25333333333333	2336.016953704706	973.2366701784712	943.3236171048119	2223.857766467882	148.9200114184991	1036.54133674406	2255.100384375554	154.0622104072248	989.2970289463618	2248.526981565001	191.7119054118968	1031.392680508911	2265.074924005826	1039.79161732815	902.5848893006893	2430.637681758087	83.63596143228003	1041.929140708301	2379.579857643409	90.71795555958603	943.9510997117243	2183.660899397267	1006.272563331176	1020.716048776894	2326.633514258051	263.9767651375512	954.5975684087915	2295.676430027232	277.8355850915676	996.3805945387026	2343.600534114666	341.3407792586287	938.9844717905463	2314.046516183684	355.7801523342879	981.5667087605831	2392.669193797099	642.5200181198006	909.0176600283752	2347.534765456241	608.4834008534018	955.836204961891	2319.12151569207	724.5192275472147	899.3596098658713	2276.678625798168	693.0886375547709	944.4178022475602	2344.407367891302	945.6962294295687	1174.177414283656	1822.23883158313	147.3084553273871	1167.86857435538	1690.30310187703	270.2192674312298	1137.451899394509	1716.249904893556	245.4738205306879	1185.52484981587	1735.942292695963	284.2602756771597	1146.674018819244	2326.094022581804	1012.815431161856	1204.347530479905	1809.836739089626	97.52460664508571	1109.664604989995	1761.893032626307	108.3542454489648	1210.718126077404	2190.55477698607	1004.092761439946	1096.895403077407	1806.595540579842	322.3125506105308	1195.621050967875	1794.18470633314	336.5732578426245	1147.640430838743	1850.368419933605	395.2287366810199	1203.023629364688	1833.772152071213	406.1625718733428	1153.650537512179	2094.239342041071	623.0032755723665	1212.059545456898	2040.207987648637	651.3858260182525	1171.992368226996	2137.976821085228	724.0377736632947	1221.377074474869	2089.227946683163	749.4346100197049	1179.800290514084	
3940	26.26	2336.664388403813	975.6214300011502	943.9764541915281	2251.003647129327	131.9507276949038	1038.075079468654	2282.144483929056	138.5422178797998	990.9677908617	2272.216897773171	176.3539507357758	1032.255231785815	2267.766689660681	1044.072420480962	903.0049971215258	2461.792602011528	83.41952915375502	1047.21138790832	2411.646299565463	84.11021100574547	948.5287668865392	2185.028284825021	1009.362056224201	1021.52103448197	2345.182553315914	254.534955085981	956.14790305169	2313.44549241664	266.5721852859778	997.8356601964828	2356.775481550297	332.6271663202648	939.8406136553411	2326.429471114664	345.2845284731187	982.3895057783128	2390.031066515798	642.5144469361984	910.1619350137753	2344.341808821244	609.0175957689746	956.8301525259404	2317.47345361477	725.4802169182566	900.2439789937504	2274.83963687955	694.7897819100461	945.5913471324085	2346.07628725204	947.4845333373971	1173.66973765393	1803.966340133478	160.7146089921792	1166.486353201866	1679.300402374898	293.1523024147494	1140.803978511383	1704.427677521293	265.4330008303655	1187.900510802163	1726.129938198719	303.8368422897915	1149.4892129232	2330.959646370699	1017.657662548168	1202.550847603749	1787.219837934847	112.6784209405303	1107.307364392897	1741.38803341957	124.1194080075943	1209.352413747676	2192.388759547838	1007.529792719837	1097.855642323089	1797.370687613412	335.7278320270145	1197.618594908323	1784.910696582931	351.2042378564925	1150.086338861027	1844.214351350307	406.537091043086	1205.131534213503	1827.29316897021	418.8801217978232	1156.260365590826	2095.151525647962	625.7836717005328	1212.351904706745	2040.621412851972	655.0433000256338	1173.563756249648	2139.957226642501	726.3031281547569	1222.239889439199	2090.679289302558	752.4814120318216	1181.856802910797	
3941	26.26666666666667	2336.868840714383	977.6375852578042	944.5018897318917	2277.600966605106	116.3355564986349	1039.743050374622	2308.469328413609	124.3156366129891	992.6905216084999	2295.304972632146	162.0393766249407	1033.179215730192	2269.521754698229	1047.572162158112	903.5881883259402	2491.018747081524	84.48394595207063	1052.078445924003	2442.128460761553	78.88001262933741	952.8441654413292	2185.897514448513	1011.791473643249	1022.338017927254	2362.618231375636	245.816721628038	957.7511052010748	2330.327545346532	256.0040367871056	999.439074010026	2368.895252903431	324.2505075875191	940.8930622688378	2337.929064754168	335.123178130281	983.4555365033497	2386.564805104108	641.5366915892214	911.2868405699774	2340.456393469064	608.9113160192164	958.1366241524702	2315.196274776019	725.5999157019435	901.1248755263639	2272.497457356927	695.9374394918275	947.0442854690366	2347.395590564033	949.2285325406467	1173.198836565359	1786.475929920249	175.7471216690135	1164.884436567682	1669.162098258144	316.232498407684	1143.45635716812	1693.374213331803	286.0033641717849	1189.694609190618	1716.841043053736	323.7508915252519	1151.518843246983	2334.113708369837	1022.569698838507	1201.049384916813	1765.737511039825	129.4157517961129	1105.091414261047	1722.034026293309	141.6530901959626	1208.124134780487	2193.721081225007	1010.392394834149	1098.789701751575	1789.050775215292	349.6494637051029	1199.050667032968	1776.754989913201	366.512810723714	1151.990895138525	1839.275793923864	417.8884640492775	1206.853828223172	1822.407814835937	431.8189013537693	1158.45173927625	2097.66805338833	626.8530384496327	1212.630291154558	2042.443567962637	656.6095294253111	1175.172333480577	2142.77148765399	727.1373604508728	1223.173463174891	2092.711839803621	753.7743073195262	1184.108126055387	
